<svg id="Layer_1" data-name="Layer 1" xmlns="http://www.w3.org/2000/svg" viewBox="0 0 400 400"><defs><style>.cls-1{fill:#ebb54a;}.cls-2{fill:#73a6fc;}.cls-3{fill:#e0533b;}.cls-4{fill:#fff;}</style></defs><title>p13</title><rect class="cls-1" width="100" height="100"/><rect class="cls-2" x="100" width="100" height="100"/><rect class="cls-3" x="200" width="100" height="100"/><rect class="cls-1" x="300" width="100" height="100"/><polygon class="cls-3" points="0 100 100 100 0 200 0 100"/><polygon class="cls-2" points="400 100 400 200 300 100 400 100"/><polygon class="cls-2" points="0 300 0 200 100 300 0 300"/><polygon class="cls-1" points="201 100 101 100 1 200 101 300 201 300 101 200 201 100"/><rect class="cls-4" x="129.29" y="129.29" width="141.42" height="141.42" transform="translate(-82.84 200) rotate(-45)"/><polygon class="cls-1" points="300 100 200 100 300 200 200 300 300 300 400 200 300 100"/><polygon class="cls-3" points="400 300 300 300 400 200 400 300"/><rect class="cls-1" y="300" width="100" height="100"/><rect class="cls-3" x="100" y="300" width="100" height="100"/><rect class="cls-2" x="200" y="300" width="100" height="100"/><rect class="cls-1" x="300" y="300" width="100" height="100"/></svg>