<svg id="Layer_1" data-name="Layer 1" xmlns="http://www.w3.org/2000/svg" viewBox="0 0 400 400"><defs><style>.cls-1{fill:#e0533b;}.cls-2{fill:#ebb54a;}.cls-3{fill:#94ed6b;}</style></defs><title>p18</title><polygon class="cls-1" points="0 0 100 0 0 100 0 0"/><polygon class="cls-1" points="400 0 400 100 300 0 400 0"/><polygon class="cls-2" points="100 0 0 100 100 200 100 100 200 0 100 0"/><polygon class="cls-1" points="200 0 200 -1 100 99 100 199 200 99 200 100 300 200 300 100 200 0"/><polygon class="cls-2" points="400 100 300 0 200 0 300 100 300 200 400 100"/><polygon class="cls-1" points="0 100 0 200 0 300 100 200 0 100"/><rect class="cls-3" x="129.29" y="129.29" width="141.42" height="141.42" transform="translate(-82.84 200) rotate(-45)"/><polygon class="cls-1" points="300 200 400 300 400 200 400 100 300 200"/><polygon class="cls-1" points="0 400 0 300 100 400 0 400"/><polygon class="cls-2" points="100 300 100 200 0 300 100 400 200 400 100 300"/><polygon class="cls-1" points="200 300 100 200 100 300 200 400 300 300 300 200 200 300"/><polygon class="cls-2" points="300 200 300 300 200 400 300 400 400 300 300 200"/><polygon class="cls-1" points="400 400 300 400 400 300 400 400"/></svg>