<?xml version="1.0" encoding="utf-8"?>
<!-- Generator: Adobe Illustrator 18.0.0, SVG Export Plug-In . SVG Version: 6.00 Build 0)  -->
<!DOCTYPE svg PUBLIC "-//W3C//DTD SVG 1.1//EN" "http://www.w3.org/Graphics/SVG/1.1/DTD/svg11.dtd">
<svg version="1.1" id="Layer_1" xmlns="http://www.w3.org/2000/svg" xmlns:xlink="http://www.w3.org/1999/xlink" x="0px" y="0px"
	 viewBox="0 0 13092.1 1497.3" enable-background="new 0 0 13092.1 1497.3" xml:space="preserve">
<rect x="4330.1" y="24.6" fill="#E0533B" width="1449.4" height="1447.8"/>
<polygon fill="#73A6FC" points="5055.6,24.4 4693.6,24.4 5055.6,386.4 5417.6,24.4 "/>
<polygon fill="#73A6FC" points="5055.6,1472.4 4693.6,1472.4 5055.6,1110.4 5417.6,1472.4 "/>
<polygon fill="#94ED6B" points="4330.1,384.8 4330.1,749.4 4330.1,1111.4 4692.1,748.4 "/>
<polygon fill="#EBB54A" points="4693.6,24.4 4330.1,24.4 4693.3,386.4 5055.1,748.4 5055.6,386.4 "/>
<polygon fill="#E0533B" points="4693.3,1110.4 4330.1,1472.4 4693.6,1472.4 5055.6,1110.4 5055.1,748.4 "/>
<polygon fill="#E0533B" points="4693.6,386.4 4330.1,24.4 4330.1,384.9 4331.6,386.4 4692.1,748.4 5055.1,748.4 "/>
<polygon fill="#EBB54A" points="4692.1,748.4 4331.1,1110.4 4330.1,1111.4 4330.1,1472.4 4692.8,1110.4 5055.1,748.4 "/>
<polygon fill="#73A6FC" points="5054.1,1472.4 5416.1,1472.4 5054.1,1110.4 4692.1,1472.4 "/>
<polygon fill="#73A6FC" points="5054.1,24.4 5416.1,24.4 5054.1,386.4 4692.1,24.4 "/>
<g>
	<polygon fill="#94ED6B" points="5779.6,1112.5 5770.9,1103.4 5773.1,411.5 5779.6,411.5 	"/>
	<polygon fill="#94ED6B" points="5778.6,1112.2 5779.1,1112.7 5779.6,384.5 5415.8,748.4 	"/>
</g>
<polygon fill="#EBB54A" points="5416.1,1472.4 5779.6,1472.4 5416.3,1110.4 5055.1,748.4 5054.1,1110.4 "/>
<polygon fill="#E0533B" points="5416.3,386.4 5779.6,24.4 5416.1,24.4 5054.1,386.4 5055.1,748.4 "/>
<polygon fill="#E0533B" points="5779.6,1112.2 5417.6,748.4 5417.1,748.4 5055.1,748.4 5414.3,1110.4 5779.6,1472.4 5779.1,1112.7 
	"/>
<g>
	<path fill="#FFFFFF" d="M12.7,1219.3c117.1,92.7,221.9,148.8,368.2,148.8c173.1,0,321.9-75.6,321.9-265.8
		c0-173.1-129.2-239-302.4-302.4C141.9,704.8,2.9,619.4,2.9,373.1S207.7,0,424.8,0c141.4,0,258.5,43.9,346.3,114.6v156.1
		C654,178,556.5,129.2,424.8,129.2c-163.4,0-275.6,97.5-275.6,246.3c0,139,82.9,207.3,292.6,280.4
		c268.2,92.7,409.7,192.7,409.7,446.3c0,265.8-209.7,395.1-470.7,395.1c-156.1,0-280.4-43.9-368.2-112.2V1219.3z"/>
	<path fill="#FFFFFF" d="M1303.1,1073l-151.2,399.9H995.9L1556.8,24.4h192.7l568.2,1448.5h-161L2005.5,1073H1303.1z M1651.9,146.3
		l-302.4,799.9h607.2L1651.9,146.3z"/>
	<path fill="#FFFFFF" d="M2711.4,1472.9h-151.2V24.4h151.2V1472.9z"/>
	<path fill="#FFFFFF" d="M3124.5,24.4h151.2v1316.9H3900v131.7h-775.5V24.4z"/>
</g>
<polygon fill="#E0533B" points="5779.6,1472.4 5777.9,1470.6 5778.2,1112.2 5779.6,1112.2 "/>
<g>
	<polygon fill="#EBB54A" points="5417.6,748.4 5779.6,384.7 5778.3,25.6 5415.3,386.4 5055.1,748.4 	"/>
	<polygon fill="#EBB54A" points="5777.9,383 5779.6,383 5779.6,24.4 5776.4,27.6 	"/>
</g>
<rect x="13298.5" y="0" fill="#E0533B" width="315.9" height="315.9"/>
<g>
	<rect x="13726.9" y="0" fill="none" width="976.7" height="315.9"/>
	<path fill="#FFFFFF" d="M13764.3,6.3h4.5v43.3h-4.5v-20h-26.7v20h-4.5V6.3h4.5v19.2h26.7V6.3z"/>
	<path fill="#FFFFFF" d="M13806.1,45.6v3.9h-24.9V6.3h24.6v3.9h-20.1v15.3h18.8v3.9h-18.8v16.2H13806.1z"/>
	<path fill="#FFFFFF" d="M13831.6,27.1l15.5,22.5h-5.2l-13.1-19l-13.2,19h-5.1l15.7-22.5l-14.6-20.8h5.3l12.1,17.6l11.9-17.6h5
		L13831.6,27.1z"/>
	<path fill="#FFFFFF" d="M13871.1,49.6h-4.1l2.5-12.3h-5.6v-3.9h6.4l2.2-10.7h-6.3v-3.9h7l2.6-12.5h4.1l-2.6,12.5h9.8l2.6-12.5h4.1
		l-2.6,12.5h5.5v3.9h-6.2l-2.2,10.7h6.1v3.9h-6.9l-2.5,12.3h-4.1l2.5-12.3h-9.8L13871.1,49.6z M13884.2,33.4l2.2-10.7h-9.8
		l-2.2,10.7H13884.2z"/>
	<path fill="#FFFFFF" d="M13907.5,18.6c2,0,3.6,1.6,3.6,3.6c0,2-1.7,3.6-3.6,3.6s-3.6-1.7-3.6-3.6
		C13903.9,20.2,13905.5,18.6,13907.5,18.6z M13907.5,43c2,0,3.6,1.6,3.6,3.6c0,2-1.7,3.6-3.6,3.6s-3.6-1.7-3.6-3.6
		C13903.9,44.6,13905.5,43,13907.5,43z"/>
	<path fill="#FFFFFF" d="M13937.5,33.9V34c0,7.8,5.6,12.4,11.8,12.4c4.5,0,7.7-1.2,10.9-3.6v4.4c-2.8,2.1-6.9,3.1-10.9,3.1
		c-9.2,0-16.2-6.3-16.2-16.6c0-9.6,6.6-16.6,15.1-16.6c8,0,13.3,4.8,13.3,13.9v3H13937.5z M13957.2,30.3c-0.3-6.6-3.9-9.3-9.2-9.3
		c-5,0-9,3.4-10.2,9.3H13957.2z"/>
	<path fill="#FFFFFF" d="M13984.3,5.5c9.9,0,16.1,9.4,16.1,22.4c0,13-6.2,22.4-16.1,22.4s-16.1-9.4-16.1-22.4
		C13968.1,14.9,13974.3,5.5,13984.3,5.5z M13984.3,46.4c7,0,11.6-7.7,11.6-18.5c0-10.9-4.6-18.5-11.6-18.5s-11.6,7.7-11.6,18.5
		C13972.7,38.8,13977.3,46.4,13984.3,46.4z"/>
	<path fill="#FFFFFF" d="M14012.3,22.9c9.9,1.2,17.6,5,17.6,14.7c0,6.6-4.7,12.8-15.1,12.8c-3.8,0-7.3-1.1-9.8-2.8v-4.2
		c3.1,2,6.3,3.3,9.7,3.3c7,0,10.6-3.7,10.6-9c0-7.9-7.4-10.3-17.3-11.4l1.4-19.9h19.3v3.9h-15.7L14012.3,22.9z"/>
	<path fill="#FFFFFF" d="M14034.8,10.6c2-2.6,6.4-5,11.3-5c8.2,0,12.1,5,12.1,10.7c0,5.3-4.2,10.4-9.9,11.2c6,0.7,10.9,4.7,10.9,11
		c0,6.4-5,11.8-14.4,11.8c-3.9,0-8.4-1.2-10.5-3.1v-4.2c3.1,2.1,6.1,3.5,10.5,3.5c5.9,0,9.8-3.1,9.8-8.1c0-5.5-3.4-7.9-12.1-9.3
		v-3.1c7.4-1.6,11-4.7,11-9.8c0-4.3-3.3-6.8-7.4-6.8c-4.9,0-8.6,2.9-11.3,5.8V10.6z"/>
	<path fill="#FFFFFF" d="M14064.5,10.6c2-2.6,6.4-5,11.3-5c8.2,0,12.1,5,12.1,10.7c0,5.3-4.2,10.4-9.9,11.2c6,0.7,10.9,4.7,10.9,11
		c0,6.4-5,11.8-14.4,11.8c-3.9,0-8.4-1.2-10.5-3.1v-4.2c3.1,2.1,6.1,3.5,10.5,3.5c5.9,0,9.8-3.1,9.8-8.1c0-5.5-3.4-7.9-12.1-9.3
		v-3.1c7.4-1.6,11-4.7,11-9.8c0-4.3-3.3-6.8-7.4-6.8c-4.9,0-8.6,2.9-11.3,5.8V10.6z"/>
	<path fill="#FFFFFF" d="M14096.8,0h4.4v18.7c1.4-0.8,4.5-1.6,7.6-1.6c9.6,0,16.7,5.5,16.7,16.5c0,10.3-7.3,16.8-18.3,16.8
		c-3.4,0-7.1-0.6-10.4-1.6V0z M14101.2,45.7c1.8,0.5,3.9,0.7,6,0.7c8.5,0,13.9-4.8,13.9-12.9c0-8.2-5.6-12.5-12.2-12.5
		c-3.3,0-5.8,0.6-7.6,1.5V45.7z"/>
	<path fill="#FFFFFF" d="M13737.6,137.1h-4.5V93.7c2-0.3,5.7-0.7,8.2-0.7c11.7,0,16.8,5.4,16.8,13.4c0,6.4-3.6,11.2-9.4,12.8
		l14.4,17.8h-5.6l-13.4-16.8h-6.5V137.1z M13737.6,116.6h4.5c7.1,0,11.4-3.4,11.4-10c0-5.5-3.4-9.6-12.2-9.6c-0.9,0-2.6,0.1-3.6,0.1
		V116.6z"/>
	<path fill="#FFFFFF" d="M13773.3,106.1c2,0,3.6,1.6,3.6,3.6c0,2-1.7,3.6-3.6,3.6s-3.6-1.7-3.6-3.6
		C13769.7,107.7,13771.3,106.1,13773.3,106.1z M13773.3,130.5c2,0,3.6,1.6,3.6,3.6c0,2-1.7,3.6-3.6,3.6s-3.6-1.7-3.6-3.6
		C13769.7,132.1,13771.3,130.5,13773.3,130.5z"/>
	<path fill="#FFFFFF" d="M13823.7,133.1v3.9h-27.5v-3.4c11.2-9.4,21.9-18.8,21.9-28.4c0-5.6-3.4-8.2-8-8.2c-5.6,0-9.4,2.9-12.3,5.8
		v-4.9c2.6-2.7,7-5,12.3-5c7.1,0,12.5,3.8,12.5,12.3c0,9.6-10.7,20.4-20.7,27.8H13823.7z"/>
	<path fill="#FFFFFF" d="M13855.8,133.1v3.9h-27.5v-3.4c11.2-9.4,21.9-18.8,21.9-28.4c0-5.6-3.4-8.2-8-8.2c-5.6,0-9.4,2.9-12.3,5.8
		v-4.9c2.6-2.7,7-5,12.3-5c7.1,0,12.5,3.8,12.5,12.3c0,9.6-10.7,20.4-20.7,27.8H13855.8z"/>
	<path fill="#FFFFFF" d="M13884.4,121.3h8.2v3.7h-8.2v12h-4.3v-12h-21.4v-3.7l20.5-27.6h5.2V121.3z M13863.3,121.3h16.8V98.5
		L13863.3,121.3z"/>
	<path fill="#FFFFFF" d="M13972.8,101.5c-3.1-2.9-7.4-4.4-12-4.4c-9.7,0-17.7,7.2-17.7,18.3c0,11.1,8,18.4,17.7,18.4
		c4.1,0,6.2-0.4,8.9-1.6v-14.7h4.5v17.1c-3.4,2-7.8,3.2-13.3,3.2c-13,0-22.4-9.2-22.4-22.4c0-13.3,10-22.4,22.4-22.4
		c4.4,0,8.4,1.2,11.9,3.3V101.5z"/>
	<path fill="#FFFFFF" d="M13987.2,106.1c2,0,3.6,1.6,3.6,3.6c0,2-1.7,3.6-3.6,3.6s-3.6-1.7-3.6-3.6
		C13983.6,107.7,13985.2,106.1,13987.2,106.1z M13987.2,130.5c2,0,3.6,1.6,3.6,3.6c0,2-1.7,3.6-3.6,3.6s-3.6-1.7-3.6-3.6
		C13983.6,132.1,13985.2,130.5,13987.2,130.5z"/>
	<path fill="#FFFFFF" d="M14012.7,125.3c0-6.3,5-10.4,9.5-11.2c-3.7-1.1-7-4.6-7-9.7c0-7.4,5.5-11.3,12-11.3s12,3.9,12,11.3
		c0,5.1-3.3,8.6-7,9.7c4.4,0.9,9.5,5,9.5,11.2c0,8-6.4,12.5-14.4,12.5S14012.7,133.3,14012.7,125.3z M14037,125.3
		c0-5.8-4.4-9.3-9.8-9.3c-5.4,0-9.8,3.5-9.8,9.3c0,6,4.4,8.9,9.8,8.9C14032.5,134.1,14037,131.2,14037,125.3z M14034.8,104.3
		c0-4.8-3.5-7.7-7.7-7.7c-4.2,0-7.7,2.9-7.7,7.7c0,4.7,3.5,7.6,7.7,7.6C14031.3,111.8,14034.8,109,14034.8,104.3z"/>
	<path fill="#FFFFFF" d="M14046.4,98.1c2-2.6,6.4-5,11.3-5c8.2,0,12.1,5,12.1,10.7c0,5.3-4.2,10.4-9.9,11.2c6,0.7,10.9,4.7,10.9,11
		c0,6.4-5,11.8-14.4,11.8c-3.9,0-8.4-1.2-10.5-3.1v-4.2c3.1,2.1,6.1,3.5,10.5,3.5c5.9,0,9.8-3.1,9.8-8.1c0-5.5-3.4-7.9-12.1-9.3
		v-3.1c7.4-1.6,11-4.7,11-9.8c0-4.3-3.3-6.8-7.4-6.8c-4.9,0-8.6,2.9-11.3,5.8V98.1z"/>
	<path fill="#FFFFFF" d="M14121.1,93.7c2.9-0.4,6.2-0.7,8.7-0.7c10.9,0,15.7,4.2,15.7,11.7c0,5.6-3.6,9.5-9.1,10.1
		c6.7,0.4,10.9,4.2,10.9,10.5c0,7-4.8,12.4-17.4,12.4c-2.9,0-5.9-0.3-8.7-0.8V93.7z M14125.5,113.2h3.9c7.3,0,11.7-2.8,11.7-8.5
		c0-5.4-4.2-8-11.3-8c-1.2,0-2.7,0.1-4.2,0.2V113.2z M14125.5,133.8c1.8,0.2,3.2,0.3,4.3,0.3c9.2,0,13-3.3,13-8.7
		c0-5.8-5-8.3-12.8-8.3h-4.5V133.8z"/>
	<path fill="#FFFFFF" d="M14158.9,106.1c2,0,3.6,1.6,3.6,3.6c0,2-1.7,3.6-3.6,3.6s-3.6-1.7-3.6-3.6
		C14155.3,107.7,14156.9,106.1,14158.9,106.1z M14158.9,130.5c2,0,3.6,1.6,3.6,3.6c0,2-1.7,3.6-3.6,3.6s-3.6-1.7-3.6-3.6
		C14155.3,132.1,14156.9,130.5,14158.9,130.5z"/>
	<path fill="#FFFFFF" d="M14190.1,110.4c9.9,1.2,17.6,5,17.6,14.7c0,6.6-4.7,12.8-15.1,12.8c-3.8,0-7.3-1.1-9.8-2.8v-4.2
		c3.1,2,6.3,3.3,9.7,3.3c7,0,10.6-3.7,10.6-9c0-7.9-7.4-10.3-17.3-11.4l1.4-19.9h19.3v3.9h-15.7L14190.1,110.4z"/>
	<path fill="#FFFFFF" d="M14222.1,137.1l9.6-14.5l3.7-5.2c-2.3,2.7-5.2,3.9-9,3.9c-7.2,0-13.8-5-13.8-14.1c0-7.6,5.4-14.1,14.8-14.1
		c9.3,0,14.4,6.6,14.4,14.1c0,5.2-2,9.8-5.1,14.6l-9.9,15.3H14222.1z M14227.3,96.7c-5.9,0-10.3,4-10.3,10.4
		c0,6.3,4.3,10.4,10.2,10.4c5.8,0,10.1-4.1,10.1-10.4C14237.4,100.7,14232.9,96.7,14227.3,96.7z"/>
</g>
<rect x="13298.5" y="392.9" fill="#EBB54A" width="315.9" height="315.9"/>
<g>
	<rect x="13726.9" y="392.9" fill="none" width="976.7" height="315.9"/>
	<path fill="#FFFFFF" d="M13764.3,399.2h4.5v43.3h-4.5v-20h-26.7v20h-4.5v-43.3h4.5v19.2h26.7V399.2z"/>
	<path fill="#FFFFFF" d="M13806.1,438.5v3.9h-24.9v-43.3h24.6v3.9h-20.1v15.3h18.8v3.9h-18.8v16.2H13806.1z"/>
	<path fill="#FFFFFF" d="M13831.6,420l15.5,22.5h-5.2l-13.1-19l-13.2,19h-5.1l15.7-22.5l-14.6-20.8h5.3l12.1,17.6l11.9-17.6h5
		L13831.6,420z"/>
	<path fill="#FFFFFF" d="M13871.1,442.5h-4.1l2.5-12.3h-5.6v-3.9h6.4l2.2-10.7h-6.3v-3.9h7l2.6-12.5h4.1l-2.6,12.5h9.8l2.6-12.5h4.1
		l-2.6,12.5h5.5v3.9h-6.2l-2.2,10.7h6.1v3.9h-6.9l-2.5,12.3h-4.1l2.5-12.3h-9.8L13871.1,442.5z M13884.2,426.3l2.2-10.7h-9.8
		l-2.2,10.7H13884.2z"/>
	<path fill="#FFFFFF" d="M13907.5,411.5c2,0,3.6,1.6,3.6,3.6c0,2-1.7,3.6-3.6,3.6s-3.6-1.7-3.6-3.6
		C13903.9,413.1,13905.5,411.5,13907.5,411.5z M13907.5,435.9c2,0,3.6,1.6,3.6,3.6c0,2-1.7,3.6-3.6,3.6s-3.6-1.7-3.6-3.6
		C13903.9,437.5,13905.5,435.9,13907.5,435.9z"/>
	<path fill="#FFFFFF" d="M13937.5,426.8v0.1c0,7.8,5.6,12.4,11.8,12.4c4.5,0,7.7-1.2,10.9-3.6v4.4c-2.8,2.1-6.9,3.1-10.9,3.1
		c-9.2,0-16.2-6.3-16.2-16.6c0-9.6,6.6-16.6,15.1-16.6c8,0,13.3,4.8,13.3,13.9v3H13937.5z M13957.2,423.1c-0.3-6.6-3.9-9.3-9.2-9.3
		c-5,0-9,3.4-10.2,9.3H13957.2z"/>
	<path fill="#FFFFFF" d="M13970,392.9h4.4v18.7c1.4-0.8,4.5-1.6,7.6-1.6c9.6,0,16.7,5.5,16.7,16.5c0,10.3-7.3,16.8-18.3,16.8
		c-3.4,0-7.1-0.6-10.4-1.6V392.9z M13974.3,438.6c1.8,0.5,3.9,0.7,6,0.7c8.5,0,13.9-4.8,13.9-12.9c0-8.2-5.6-12.5-12.2-12.5
		c-3.3,0-5.8,0.6-7.6,1.5V438.6z"/>
	<path fill="#FFFFFF" d="M14007.1,392.9h4.4v18.7c1.4-0.8,4.5-1.6,7.6-1.6c9.6,0,16.7,5.5,16.7,16.5c0,10.3-7.3,16.8-18.3,16.8
		c-3.4,0-7.1-0.6-10.4-1.6V392.9z M14011.5,438.6c1.8,0.5,3.9,0.7,6,0.7c8.5,0,13.9-4.8,13.9-12.9c0-8.2-5.6-12.5-12.2-12.5
		c-3.3,0-5.8,0.6-7.6,1.5V438.6z"/>
	<path fill="#FFFFFF" d="M14047.5,415.8c9.9,1.2,17.6,5,17.6,14.7c0,6.6-4.7,12.8-15.1,12.8c-3.8,0-7.3-1.1-9.8-2.8v-4.2
		c3.1,2,6.3,3.3,9.7,3.3c7,0,10.6-3.7,10.6-9c0-7.9-7.4-10.3-17.3-11.4l1.4-19.9h19.3v3.9h-15.7L14047.5,415.8z"/>
	<path fill="#FFFFFF" d="M14095.7,426.7h8.2v3.7h-8.2v12h-4.3v-12h-21.4v-3.7l20.5-27.6h5.2V426.7z M14074.7,426.7h16.8v-22.8
		L14074.7,426.7z"/>
	<path fill="#FFFFFF" d="M14127,420.2c0-4.1-2.6-6.2-6.7-6.2c-3.6,0-6.4,1-9.3,2.6v-4.2c2.7-1.5,6.1-2.5,9.8-2.5
		c6.4,0,10.6,2.8,10.6,10v21.9c-2.9,0.8-6.3,1.2-9,1.2c-8.6,0-14.4-2.7-14.4-9.4c0-6.3,5.8-9.6,15.5-9.6h3.6V420.2z M14127,427.7
		h-3.3c-6.6,0-11.4,1.7-11.4,6s4.4,5.8,10.2,5.8c1.3,0,2.9-0.1,4.4-0.4V427.7z"/>
	<path fill="#FFFFFF" d="M13737.6,529.9h-4.5v-43.4c2-0.3,5.7-0.7,8.2-0.7c11.7,0,16.8,5.4,16.8,13.4c0,6.4-3.6,11.2-9.4,12.8
		l14.4,17.8h-5.6l-13.4-16.8h-6.5V529.9z M13737.6,509.5h4.5c7.1,0,11.4-3.4,11.4-10c0-5.5-3.4-9.6-12.2-9.6c-0.9,0-2.6,0.1-3.6,0.1
		V509.5z"/>
	<path fill="#FFFFFF" d="M13773.3,499c2,0,3.6,1.6,3.6,3.6c0,2-1.7,3.6-3.6,3.6s-3.6-1.7-3.6-3.6
		C13769.7,500.6,13771.3,499,13773.3,499z M13773.3,523.4c2,0,3.6,1.6,3.6,3.6c0,2-1.7,3.6-3.6,3.6s-3.6-1.7-3.6-3.6
		C13769.7,525,13771.3,523.4,13773.3,523.4z"/>
	<path fill="#FFFFFF" d="M13823.7,526v3.9h-27.5v-3.4c11.2-9.4,21.9-18.8,21.9-28.4c0-5.6-3.4-8.2-8-8.2c-5.6,0-9.4,2.9-12.3,5.8
		v-4.9c2.6-2.7,7-5,12.3-5c7.1,0,12.5,3.8,12.5,12.3c0,9.6-10.7,20.4-20.7,27.8H13823.7z"/>
	<path fill="#FFFFFF" d="M13829.5,490.9c2-2.6,6.4-5,11.3-5c8.2,0,12.1,5,12.1,10.7c0,5.3-4.2,10.4-9.9,11.2c6,0.7,10.9,4.7,10.9,11
		c0,6.4-5,11.8-14.4,11.8c-3.9,0-8.4-1.2-10.5-3.1v-4.2c3.1,2.1,6.1,3.5,10.5,3.5c5.9,0,9.8-3.1,9.8-8.1c0-5.5-3.4-7.9-12.1-9.3
		v-3.1c7.4-1.6,11-4.7,11-9.8c0-4.3-3.3-6.8-7.4-6.8c-4.9,0-8.6,2.9-11.3,5.8V490.9z"/>
	<path fill="#FFFFFF" d="M13865.1,503.3c9.9,1.2,17.6,5,17.6,14.7c0,6.6-4.7,12.8-15.1,12.8c-3.8,0-7.3-1.1-9.8-2.8v-4.2
		c3.1,2,6.3,3.3,9.7,3.3c7,0,10.6-3.7,10.6-9c0-7.9-7.4-10.3-17.3-11.4l1.4-19.9h19.3v3.9h-15.7L13865.1,503.3z"/>
	<path fill="#FFFFFF" d="M13964.8,494.4c-3.1-2.9-7.4-4.4-12-4.4c-9.7,0-17.7,7.2-17.7,18.3c0,11.1,8,18.4,17.7,18.4
		c4.1,0,6.2-0.4,8.9-1.6v-14.7h4.5v17.1c-3.4,2-7.8,3.2-13.3,3.2c-13,0-22.4-9.2-22.4-22.4c0-13.3,10-22.4,22.4-22.4
		c4.4,0,8.4,1.2,11.9,3.3V494.4z"/>
	<path fill="#FFFFFF" d="M13979.1,499c2,0,3.6,1.6,3.6,3.6c0,2-1.7,3.6-3.6,3.6s-3.6-1.7-3.6-3.6
		C13975.6,500.6,13977.2,499,13979.1,499z M13979.1,523.4c2,0,3.6,1.6,3.6,3.6c0,2-1.7,3.6-3.6,3.6s-3.6-1.7-3.6-3.6
		C13975.6,525,13977.2,523.4,13979.1,523.4z"/>
	<path fill="#FFFFFF" d="M14002.9,488.4l13.5-2.4v44h-4.4v-39l-9,1.4V488.4z"/>
	<path fill="#FFFFFF" d="M14026.9,518.1c0-6.3,5-10.4,9.5-11.2c-3.7-1.1-7-4.6-7-9.7c0-7.4,5.5-11.3,12-11.3s12,3.9,12,11.3
		c0,5.1-3.3,8.6-7,9.7c4.4,0.9,9.5,5,9.5,11.2c0,8-6.4,12.5-14.4,12.5S14026.9,526.2,14026.9,518.1z M14051.2,518.1
		c0-5.8-4.4-9.3-9.8-9.3c-5.4,0-9.8,3.5-9.8,9.3c0,6,4.4,8.9,9.8,8.9C14046.7,527,14051.2,524.1,14051.2,518.1z M14049,497.1
		c0-4.8-3.5-7.7-7.7-7.7c-4.2,0-7.7,2.9-7.7,7.7c0,4.7,3.5,7.6,7.7,7.6C14045.5,504.7,14049,501.9,14049,497.1z"/>
	<path fill="#FFFFFF" d="M14059.9,488.4l13.5-2.4v44h-4.4v-39l-9,1.4V488.4z"/>
	<path fill="#FFFFFF" d="M14128.7,486.6c2.9-0.4,6.2-0.7,8.7-0.7c10.9,0,15.7,4.2,15.7,11.7c0,5.6-3.6,9.5-9.1,10.1
		c6.7,0.4,10.9,4.2,10.9,10.5c0,7-4.8,12.4-17.4,12.4c-2.9,0-5.9-0.3-8.7-0.8V486.6z M14133.1,506.1h3.9c7.3,0,11.7-2.8,11.7-8.5
		c0-5.4-4.2-8-11.3-8c-1.2,0-2.7,0.1-4.2,0.2V506.1z M14133.1,526.7c1.8,0.2,3.2,0.3,4.3,0.3c9.2,0,13-3.3,13-8.7
		c0-5.8-5-8.3-12.8-8.3h-4.5V526.7z"/>
	<path fill="#FFFFFF" d="M14166.4,499c2,0,3.6,1.6,3.6,3.6c0,2-1.7,3.6-3.6,3.6s-3.6-1.7-3.6-3.6
		C14162.9,500.6,14164.5,499,14166.4,499z M14166.4,523.4c2,0,3.6,1.6,3.6,3.6c0,2-1.7,3.6-3.6,3.6s-3.6-1.7-3.6-3.6
		C14162.9,525,14164.5,523.4,14166.4,523.4z"/>
	<path fill="#FFFFFF" d="M14189.8,490.6v-3.9h26.7v3.9l-18.9,39.4h-4.6l18.9-39.4H14189.8z"/>
	<path fill="#FFFFFF" d="M14242,514.2h8.2v3.7h-8.2v12h-4.3v-12h-21.4v-3.7l20.5-27.6h5.2V514.2z M14221,514.2h16.8v-22.8
		L14221,514.2z"/>
</g>
<rect x="13298.5" y="785.8" fill="#94ED6B" width="315.9" height="315.9"/>
<g>
	<rect x="13726.9" y="785.8" fill="none" width="976.7" height="315.9"/>
	<path fill="#FFFFFF" d="M13764.3,792h4.5v43.3h-4.5v-20h-26.7v20h-4.5V792h4.5v19.2h26.7V792z"/>
	<path fill="#FFFFFF" d="M13806.1,831.4v3.9h-24.9V792h24.6v3.9h-20.1v15.3h18.8v3.9h-18.8v16.2H13806.1z"/>
	<path fill="#FFFFFF" d="M13831.6,812.9l15.5,22.5h-5.2l-13.1-19l-13.2,19h-5.1l15.7-22.5l-14.6-20.8h5.3l12.1,17.6l11.9-17.6h5
		L13831.6,812.9z"/>
	<path fill="#FFFFFF" d="M13871.1,835.3h-4.1l2.5-12.3h-5.6v-3.9h6.4l2.2-10.7h-6.3v-3.9h7l2.6-12.5h4.1l-2.6,12.5h9.8l2.6-12.5h4.1
		l-2.6,12.5h5.5v3.9h-6.2l-2.2,10.7h6.1v3.9h-6.9l-2.5,12.3h-4.1l2.5-12.3h-9.8L13871.1,835.3z M13884.2,819.2l2.2-10.7h-9.8
		l-2.2,10.7H13884.2z"/>
	<path fill="#FFFFFF" d="M13907.5,804.4c2,0,3.6,1.6,3.6,3.6c0,2-1.7,3.6-3.6,3.6s-3.6-1.7-3.6-3.6
		C13903.9,806,13905.5,804.4,13907.5,804.4z M13907.5,828.8c2,0,3.6,1.6,3.6,3.6s-1.7,3.6-3.6,3.6s-3.6-1.7-3.6-3.6
		S13905.5,828.8,13907.5,828.8z"/>
	<path fill="#FFFFFF" d="M13942.2,835.3l9.6-14.5l3.7-5.2c-2.3,2.7-5.2,3.9-9,3.9c-7.2,0-13.8-5-13.8-14.1c0-7.6,5.4-14.1,14.8-14.1
		c9.3,0,14.4,6.6,14.4,14.1c0,5.2-2,9.8-5.1,14.6l-9.9,15.3H13942.2z M13947.4,795c-5.9,0-10.3,4-10.3,10.4
		c0,6.3,4.3,10.4,10.2,10.4c5.8,0,10.1-4.1,10.1-10.4C13957.5,799,13953.1,795,13947.4,795z"/>
	<path fill="#FFFFFF" d="M13991.5,819.6h8.2v3.7h-8.2v12h-4.3v-12h-21.4v-3.7l20.5-27.6h5.2V819.6z M13970.5,819.6h16.8v-22.8
		L13970.5,819.6z"/>
	<path fill="#FFFFFF" d="M14008.3,819.7v0.1c0,7.8,5.6,12.4,11.8,12.4c4.5,0,7.7-1.2,10.9-3.6v4.4c-2.8,2.1-6.9,3.1-10.9,3.1
		c-9.2,0-16.2-6.3-16.2-16.6c0-9.6,6.6-16.6,15.1-16.6c8,0,13.3,4.8,13.3,13.9v3H14008.3z M14028,816c-0.3-6.6-3.9-9.3-9.2-9.3
		c-5,0-9,3.4-10.2,9.3H14028z"/>
	<path fill="#FFFFFF" d="M14067.5,834.9c-3.4,0.8-7,1.2-10.4,1.2c-11,0-18.4-6-18.4-16.6c0-10.7,8-16.6,17.5-16.6
		c2.4,0,5.3,0.5,6.9,1.5v-18.5h4.4V834.9z M14063.1,808.2c-1.6-0.9-4-1.5-6.9-1.5c-7.4,0-13,4.5-13,12.7c0,8.1,5.6,12.8,14,12.8
		c2,0,4.1-0.1,6-0.4V808.2z"/>
	<path fill="#FFFFFF" d="M14095.8,792l-9.6,14.5l-3.7,5.2c2.3-2.7,5.2-3.9,9-3.9c7.2,0,13.8,5,13.8,14.1c0,7.6-5.4,14.1-14.8,14.1
		c-9.3,0-14.4-6.6-14.4-14.1c0-5.2,2-9.8,5.1-14.6l9.9-15.3H14095.8z M14090.5,832.4c5.9,0,10.3-4,10.3-10.4
		c0-6.3-4.3-10.4-10.2-10.4c-5.8,0-10.1,4.1-10.1,10.4C14080.5,828.4,14084.9,832.4,14090.5,832.4z"/>
	<path fill="#FFFFFF" d="M14113.4,785.8h4.4v18.7c1.4-0.8,4.5-1.6,7.6-1.6c9.6,0,16.7,5.5,16.7,16.5c0,10.3-7.3,16.8-18.3,16.8
		c-3.4,0-7.1-0.6-10.4-1.6V785.8z M14117.7,831.5c1.8,0.5,3.9,0.7,6,0.7c8.5,0,13.9-4.8,13.9-12.9c0-8.2-5.6-12.5-12.2-12.5
		c-3.3,0-5.8,0.6-7.6,1.5V831.5z"/>
	<path fill="#FFFFFF" d="M13737.6,922.8h-4.5v-43.4c2-0.3,5.7-0.7,8.2-0.7c11.7,0,16.8,5.4,16.8,13.4c0,6.4-3.6,11.2-9.4,12.8
		l14.4,17.8h-5.6l-13.4-16.8h-6.5V922.8z M13737.6,902.3h4.5c7.1,0,11.4-3.4,11.4-10c0-5.5-3.4-9.6-12.2-9.6c-0.9,0-2.6,0.1-3.6,0.1
		V902.3z"/>
	<path fill="#FFFFFF" d="M13773.3,891.8c2,0,3.6,1.6,3.6,3.6c0,2-1.7,3.6-3.6,3.6s-3.6-1.7-3.6-3.6
		C13769.7,893.5,13771.3,891.8,13773.3,891.8z M13773.3,916.3c2,0,3.6,1.6,3.6,3.6s-1.7,3.6-3.6,3.6s-3.6-1.7-3.6-3.6
		S13771.3,916.3,13773.3,916.3z"/>
	<path fill="#FFFFFF" d="M13797,881.3l13.5-2.4v44h-4.4v-39l-9,1.4V881.3z"/>
	<path fill="#FFFFFF" d="M13844.3,907.1h8.2v3.7h-8.2v12h-4.3v-12h-21.4v-3.7l20.5-27.6h5.2V907.1z M13823.2,907.1h16.8v-22.8
		L13823.2,907.1z"/>
	<path fill="#FFFFFF" d="M13856.5,911c0-6.3,5-10.4,9.5-11.2c-3.7-1.1-7-4.6-7-9.7c0-7.4,5.5-11.3,12-11.3s12,3.9,12,11.3
		c0,5.1-3.3,8.6-7,9.7c4.4,0.9,9.5,5,9.5,11.2c0,8-6.4,12.5-14.4,12.5S13856.5,919,13856.5,911z M13880.8,911c0-5.8-4.4-9.3-9.8-9.3
		c-5.4,0-9.8,3.5-9.8,9.3c0,6,4.4,8.9,9.8,8.9C13876.4,919.9,13880.8,917,13880.8,911z M13878.6,890c0-4.8-3.5-7.7-7.7-7.7
		c-4.2,0-7.7,2.9-7.7,7.7c0,4.7,3.5,7.6,7.7,7.6C13875.1,897.6,13878.6,894.8,13878.6,890z"/>
	<path fill="#FFFFFF" d="M13967.4,887.3c-3.1-2.9-7.4-4.4-12-4.4c-9.7,0-17.7,7.2-17.7,18.3s8,18.4,17.7,18.4c4.1,0,6.2-0.4,8.9-1.6
		v-14.7h4.5v17.1c-3.4,2-7.8,3.2-13.3,3.2c-13,0-22.4-9.2-22.4-22.4c0-13.3,10-22.4,22.4-22.4c4.4,0,8.4,1.2,11.9,3.3V887.3z"/>
	<path fill="#FFFFFF" d="M13981.8,891.8c2,0,3.6,1.6,3.6,3.6c0,2-1.7,3.6-3.6,3.6s-3.6-1.7-3.6-3.6
		C13978.2,893.5,13979.8,891.8,13981.8,891.8z M13981.8,916.3c2,0,3.6,1.6,3.6,3.6s-1.7,3.6-3.6,3.6s-3.6-1.7-3.6-3.6
		S13979.8,916.3,13981.8,916.3z"/>
	<path fill="#FFFFFF" d="M14032.2,918.9v3.9h-27.5v-3.4c11.2-9.4,21.9-18.8,21.9-28.4c0-5.6-3.4-8.2-8-8.2c-5.6,0-9.4,2.9-12.3,5.8
		v-4.9c2.6-2.7,7-5,12.3-5c7.1,0,12.5,3.8,12.5,12.3c0,9.6-10.7,20.4-20.7,27.8H14032.2z"/>
	<path fill="#FFFFFF" d="M14038.1,883.8c2-2.6,6.4-5,11.3-5c8.2,0,12.1,5,12.1,10.7c0,5.3-4.2,10.4-9.9,11.2c6,0.7,10.9,4.7,10.9,11
		c0,6.4-5,11.8-14.4,11.8c-3.9,0-8.4-1.2-10.5-3.1v-4.2c3.1,2.1,6.1,3.5,10.5,3.5c5.9,0,9.8-3.1,9.8-8.1c0-5.5-3.4-7.9-12.1-9.3
		v-3.1c7.4-1.6,11-4.7,11-9.8c0-4.3-3.3-6.8-7.4-6.8c-4.9,0-8.6,2.9-11.3,5.8V883.8z"/>
	<path fill="#FFFFFF" d="M14065.7,883.5v-3.9h26.7v3.9l-18.9,39.4h-4.6l18.9-39.4H14065.7z"/>
	<path fill="#FFFFFF" d="M14142.1,879.5c2.9-0.4,6.2-0.7,8.7-0.7c10.9,0,15.7,4.2,15.7,11.7c0,5.6-3.6,9.5-9.1,10.1
		c6.7,0.4,10.9,4.2,10.9,10.5c0,7-4.8,12.4-17.4,12.4c-2.9,0-5.9-0.3-8.7-0.8V879.5z M14146.5,899h3.9c7.3,0,11.7-2.8,11.7-8.5
		c0-5.4-4.2-8-11.3-8c-1.2,0-2.7,0.1-4.2,0.2V899z M14146.5,919.6c1.8,0.2,3.2,0.3,4.3,0.3c9.2,0,13-3.3,13-8.7
		c0-5.8-5-8.3-12.8-8.3h-4.5V919.6z"/>
	<path fill="#FFFFFF" d="M14179.9,891.8c2,0,3.6,1.6,3.6,3.6c0,2-1.7,3.6-3.6,3.6s-3.6-1.7-3.6-3.6
		C14176.3,893.5,14177.9,891.8,14179.9,891.8z M14179.9,916.3c2,0,3.6,1.6,3.6,3.6s-1.7,3.6-3.6,3.6s-3.6-1.7-3.6-3.6
		S14177.9,916.3,14179.9,916.3z"/>
	<path fill="#FFFFFF" d="M14203.6,881.3l13.5-2.4v44h-4.4v-39l-9,1.4V881.3z"/>
	<path fill="#FFFFFF" d="M14244.5,878.8c9.9,0,16.1,9.4,16.1,22.4s-6.2,22.4-16.1,22.4s-16.1-9.4-16.1-22.4
		S14234.5,878.8,14244.5,878.8z M14244.5,919.7c7,0,11.6-7.7,11.6-18.5s-4.6-18.5-11.6-18.5s-11.6,7.7-11.6,18.5
		S14237.5,919.7,14244.5,919.7z"/>
	<path fill="#FFFFFF" d="M14264.9,883.5v-3.9h26.7v3.9l-18.9,39.4h-4.6l18.9-39.4H14264.9z"/>
</g>
<rect x="13298.5" y="1178.7" fill="#73A6FC" width="315.9" height="315.9"/>
<g>
	<rect x="13726.9" y="1178.7" fill="none" width="976.7" height="315.9"/>
	<path fill="#FFFFFF" d="M13764.3,1184.9h4.5v43.3h-4.5v-20h-26.7v20h-4.5v-43.3h4.5v19.2h26.7V1184.9z"/>
	<path fill="#FFFFFF" d="M13806.1,1224.3v3.9h-24.9v-43.3h24.6v3.9h-20.1v15.3h18.8v3.9h-18.8v16.2H13806.1z"/>
	<path fill="#FFFFFF" d="M13831.6,1205.8l15.5,22.5h-5.2l-13.1-19l-13.2,19h-5.1l15.7-22.5l-14.6-20.8h5.3l12.1,17.6l11.9-17.6h5
		L13831.6,1205.8z"/>
	<path fill="#FFFFFF" d="M13871.1,1228.2h-4.1l2.5-12.3h-5.6v-3.9h6.4l2.2-10.7h-6.3v-3.9h7l2.6-12.5h4.1l-2.6,12.5h9.8l2.6-12.5
		h4.1l-2.6,12.5h5.5v3.9h-6.2l-2.2,10.7h6.1v3.9h-6.9l-2.5,12.3h-4.1l2.5-12.3h-9.8L13871.1,1228.2z M13884.2,1212l2.2-10.7h-9.8
		l-2.2,10.7H13884.2z"/>
	<path fill="#FFFFFF" d="M13907.5,1197.2c2,0,3.6,1.6,3.6,3.6c0,2-1.7,3.6-3.6,3.6s-3.6-1.7-3.6-3.6
		C13903.9,1198.8,13905.5,1197.2,13907.5,1197.2z M13907.5,1221.7c2,0,3.6,1.6,3.6,3.6s-1.7,3.6-3.6,3.6s-3.6-1.7-3.6-3.6
		S13905.5,1221.7,13907.5,1221.7z"/>
	<path fill="#FFFFFF" d="M13930.8,1188.9v-3.9h26.7v3.9l-18.9,39.4h-4.6l18.9-39.4H13930.8z"/>
	<path fill="#FFFFFF" d="M13962.5,1189.2c2-2.6,6.4-5,11.3-5c8.2,0,12.1,5,12.1,10.7c0,5.3-4.2,10.4-9.9,11.2
		c6,0.7,10.9,4.7,10.9,11c0,6.4-5,11.8-14.4,11.8c-3.9,0-8.4-1.2-10.5-3.1v-4.2c3.1,2.1,6.1,3.5,10.5,3.5c5.9,0,9.8-3.1,9.8-8.1
		c0-5.5-3.4-7.9-12.1-9.3v-3.1c7.4-1.6,11-4.7,11-9.8c0-4.3-3.3-6.8-7.4-6.8c-4.9,0-8.6,2.9-11.3,5.8V1189.2z"/>
	<path fill="#FFFFFF" d="M14011.4,1206c0-4.1-2.6-6.2-6.7-6.2c-3.6,0-6.4,1-9.3,2.6v-4.2c2.7-1.5,6.1-2.5,9.8-2.5
		c6.4,0,10.6,2.8,10.6,10v21.9c-2.9,0.8-6.3,1.2-9,1.2c-8.6,0-14.4-2.7-14.4-9.4c0-6.3,5.8-9.6,15.5-9.6h3.6V1206z M14011.4,1213.4
		h-3.3c-6.6,0-11.4,1.8-11.4,6s4.4,5.8,10.2,5.8c1.3,0,2.9-0.1,4.4-0.4V1213.4z"/>
	<path fill="#FFFFFF" d="M14043.5,1184.9l-9.6,14.5l-3.7,5.2c2.3-2.7,5.2-3.9,9-3.9c7.2,0,13.8,5,13.8,14.1
		c0,7.6-5.4,14.1-14.8,14.1c-9.3,0-14.4-6.6-14.4-14.1c0-5.2,2-9.8,5.1-14.6l9.9-15.3H14043.5z M14038.3,1225.3
		c5.9,0,10.3-4,10.3-10.4c0-6.3-4.3-10.4-10.2-10.4c-5.8,0-10.1,4.1-10.1,10.4C14028.2,1221.3,14032.7,1225.3,14038.3,1225.3z"/>
	<path fill="#FFFFFF" d="M14066.3,1228.2h-4.4v-28.1h-4.9v-3.7h4.9v-7.9c0-6.6,3.4-10.6,9.8-10.6c2.4,0,4.2,0.5,5.7,1.6v4.2
		c-1.5-1.1-3.3-1.9-5.6-1.9c-3.4,0-5.5,1.6-5.5,6.8v7.9h8.7v3.7h-8.7V1228.2z"/>
	<path fill="#FFFFFF" d="M14103.9,1202.7c-2.7-1.9-5.9-3-8.9-3c-6.6,0-12.2,4.4-12.2,12.7c0,8,5.6,12.5,12.5,12.5
		c3.4,0,6.2-1.1,9.1-3v4.6c-3.1,1.6-6.2,2.4-9.5,2.4c-8.9,0-16.5-6.2-16.5-16.6c0-10.6,7.9-16.6,16.5-16.6c3.5,0,6.3,0.8,9.1,2.4
		V1202.7z"/>
	<path fill="#FFFFFF" d="M13737.6,1315.7h-4.5v-43.4c2-0.3,5.7-0.7,8.2-0.7c11.7,0,16.8,5.4,16.8,13.4c0,6.4-3.6,11.2-9.4,12.8
		l14.4,17.8h-5.6l-13.4-16.8h-6.5V1315.7z M13737.6,1295.2h4.5c7.1,0,11.4-3.4,11.4-10c0-5.5-3.4-9.6-12.2-9.6
		c-0.9,0-2.6,0.1-3.6,0.1V1295.2z"/>
	<path fill="#FFFFFF" d="M13773.3,1284.7c2,0,3.6,1.6,3.6,3.6c0,2-1.7,3.6-3.6,3.6s-3.6-1.7-3.6-3.6
		C13769.7,1286.3,13771.3,1284.7,13773.3,1284.7z M13773.3,1309.2c2,0,3.6,1.6,3.6,3.6s-1.7,3.6-3.6,3.6s-3.6-1.7-3.6-3.6
		S13771.3,1309.2,13773.3,1309.2z"/>
	<path fill="#FFFFFF" d="M13797,1274.2l13.5-2.4v44h-4.4v-39l-9,1.4V1274.2z"/>
	<path fill="#FFFFFF" d="M13819.3,1274.2l13.5-2.4v44h-4.4v-39l-9,1.4V1274.2z"/>
	<path fill="#FFFFFF" d="M13849,1289c9.9,1.2,17.6,5,17.6,14.7c0,6.6-4.7,12.8-15.1,12.8c-3.8,0-7.3-1.1-9.8-2.8v-4.2
		c3.1,2,6.3,3.3,9.7,3.3c7,0,10.6-3.7,10.6-9c0-7.9-7.4-10.3-17.3-11.4l1.4-19.9h19.3v3.9h-15.7L13849,1289z"/>
	<path fill="#FFFFFF" d="M13948.7,1280.1c-3.1-2.9-7.4-4.4-12-4.4c-9.7,0-17.7,7.2-17.7,18.3s8,18.4,17.7,18.4
		c4.1,0,6.2-0.4,8.9-1.6v-14.7h4.5v17.1c-3.4,2-7.8,3.2-13.3,3.2c-13,0-22.4-9.2-22.4-22.4c0-13.3,10-22.4,22.4-22.4
		c4.4,0,8.4,1.2,11.9,3.3V1280.1z"/>
	<path fill="#FFFFFF" d="M13963,1284.7c2,0,3.6,1.6,3.6,3.6c0,2-1.7,3.6-3.6,3.6s-3.6-1.7-3.6-3.6
		C13959.5,1286.3,13961.1,1284.7,13963,1284.7z M13963,1309.2c2,0,3.6,1.6,3.6,3.6s-1.7,3.6-3.6,3.6s-3.6-1.7-3.6-3.6
		S13961.1,1309.2,13963,1309.2z"/>
	<path fill="#FFFFFF" d="M13986.8,1274.2l13.5-2.4v44h-4.4v-39l-9,1.4V1274.2z"/>
	<path fill="#FFFFFF" d="M14030.7,1272.4l-9.6,14.5l-3.7,5.2c2.3-2.7,5.2-3.9,9-3.9c7.2,0,13.8,5,13.8,14.1
		c0,7.6-5.4,14.1-14.8,14.1c-9.3,0-14.4-6.6-14.4-14.1c0-5.2,2-9.8,5.1-14.6l9.9-15.3H14030.7z M14025.4,1312.8
		c5.9,0,10.3-4,10.3-10.4c0-6.3-4.3-10.4-10.2-10.4c-5.8,0-10.1,4.1-10.1,10.4C14015.4,1308.8,14019.8,1312.8,14025.4,1312.8z"/>
	<path fill="#FFFFFF" d="M14065.6,1272.4l-9.6,14.5l-3.7,5.2c2.3-2.7,5.2-3.9,9-3.9c7.2,0,13.8,5,13.8,14.1
		c0,7.6-5.4,14.1-14.8,14.1c-9.3,0-14.4-6.6-14.4-14.1c0-5.2,2-9.8,5.1-14.6l9.9-15.3H14065.6z M14060.4,1312.8
		c5.9,0,10.3-4,10.3-10.4c0-6.3-4.3-10.4-10.2-10.4c-5.8,0-10.1,4.1-10.1,10.4C14050.3,1308.8,14054.8,1312.8,14060.4,1312.8z"/>
	<path fill="#FFFFFF" d="M14125.5,1272.3c2.9-0.4,6.2-0.7,8.7-0.7c10.9,0,15.7,4.2,15.7,11.7c0,5.6-3.6,9.5-9.1,10.1
		c6.7,0.4,10.9,4.2,10.9,10.5c0,7-4.8,12.4-17.4,12.4c-2.9,0-5.9-0.3-8.7-0.8V1272.3z M14129.9,1291.9h3.9c7.3,0,11.7-2.8,11.7-8.5
		c0-5.4-4.2-8-11.3-8c-1.2,0-2.7,0.1-4.2,0.2V1291.9z M14129.9,1312.4c1.8,0.2,3.2,0.3,4.3,0.3c9.2,0,13-3.3,13-8.7
		c0-5.8-5-8.3-12.8-8.3h-4.5V1312.4z"/>
	<path fill="#FFFFFF" d="M14163.2,1284.7c2,0,3.6,1.6,3.6,3.6c0,2-1.7,3.6-3.6,3.6s-3.6-1.7-3.6-3.6
		C14159.7,1286.3,14161.3,1284.7,14163.2,1284.7z M14163.2,1309.2c2,0,3.6,1.6,3.6,3.6s-1.7,3.6-3.6,3.6s-3.6-1.7-3.6-3.6
		S14161.3,1309.2,14163.2,1309.2z"/>
	<path fill="#FFFFFF" d="M14213.7,1311.8v3.9h-27.5v-3.4c11.2-9.4,21.9-18.8,21.9-28.4c0-5.6-3.4-8.2-8-8.2c-5.6,0-9.4,2.9-12.3,5.8
		v-4.9c2.6-2.7,7-5,12.3-5c7.1,0,12.5,3.8,12.5,12.3c0,9.6-10.7,20.4-20.7,27.8H14213.7z"/>
	<path fill="#FFFFFF" d="M14226.6,1289c9.9,1.2,17.6,5,17.6,14.7c0,6.6-4.7,12.8-15.1,12.8c-3.8,0-7.3-1.1-9.8-2.8v-4.2
		c3.1,2,6.3,3.3,9.7,3.3c7,0,10.6-3.7,10.6-9c0-7.9-7.4-10.3-17.3-11.4l1.4-19.9h19.3v3.9h-15.7L14226.6,1289z"/>
	<path fill="#FFFFFF" d="M14276.5,1311.8v3.9h-27.5v-3.4c11.2-9.4,21.9-18.8,21.9-28.4c0-5.6-3.4-8.2-8-8.2c-5.6,0-9.4,2.9-12.3,5.8
		v-4.9c2.6-2.7,7-5,12.3-5c7.1,0,12.5,3.8,12.5,12.3c0,9.6-10.7,20.4-20.7,27.8H14276.5z"/>
</g>
<g>
	<rect x="6152" y="32.4" fill="none" width="7188.4" height="1444"/>
	<path fill="#FFFFFF" d="M6185.6,493.2c38.4,30.4,72.8,48.8,120.8,48.8c56.8,0,105.6-24.8,105.6-87.2c0-56.8-42.4-78.4-99.2-99.2
		c-84.8-31.2-130.4-59.2-130.4-140s67.2-122.4,138.4-122.4c46.4,0,84.8,14.4,113.6,37.6V182c-38.4-30.4-70.4-46.4-113.6-46.4
		c-53.6,0-90.4,32-90.4,80.8c0,45.6,27.2,68,96,92c88,30.4,134.4,63.2,134.4,146.4c0,87.2-68.8,129.6-154.4,129.6
		c-51.2,0-92-14.4-120.8-36.8V493.2z"/>
	<path fill="#FFFFFF" d="M6704,219.6c104,0,175.2,74.4,175.2,182.4c0,108-71.2,182.4-175.2,182.4S6528.8,510,6528.8,402
		C6528.8,294,6600,219.6,6704,219.6z M6704,261.2c-73.6,0-126.4,56-126.4,140.8s52.8,140.8,126.4,140.8s126.4-56,126.4-140.8
		S6777.6,261.2,6704,261.2z"/>
	<path fill="#FFFFFF" d="M7030.4,576.4h-48v-308h-53.6v-40.8h53.6v-87.2c0-72.8,37.6-116,107.2-116c26.4,0,45.6,5.6,62.4,17.6v45.6
		c-16.8-12-36-20.8-61.6-20.8c-36.8,0-60,17.6-60,74.4v86.4h96v40.8h-96V576.4z"/>
	<path fill="#FFFFFF" d="M7140,227.6h53.6v-84.8h48v84.8h98.4v40.8h-98.4v212.8c0,44.8,17.6,62.4,50.4,62.4
		c22.4,0,40.8-7.2,64.8-19.2v42.4c-20.8,10.4-44.8,17.6-75.2,17.6c-50.4,0-88-26.4-88-98.4V268.4H7140V227.6z"/>
	<path fill="#FFFFFF" d="M7745.6,532.4l87.2-304.8h48l-105.6,348.8h-58.4l-84-296.8l-84,296.8h-58.4l-105.6-348.8h50.4l87.2,304.8
		l86.4-304.8h49.6L7745.6,532.4z"/>
	<path fill="#FFFFFF" d="M8125.6,332.4c0-44.8-28.8-68-73.6-68c-40,0-70.4,11.2-102.4,28v-45.6c29.6-16,67.2-27.2,108-27.2
		c70.4,0,116,31.2,116,109.6V570c-32,8.8-69.6,12.8-99.2,12.8c-94.4,0-157.6-29.6-157.6-103.2c0-68.8,63.2-104.8,169.6-104.8h39.2
		V332.4z M8125.6,414h-36c-72,0-124.8,19.2-124.8,65.6c0,46.4,48,63.2,112,63.2c14.4,0,32-1.6,48.8-4.8V414z"/>
	<path fill="#FFFFFF" d="M8336,576.4h-48V259.6c36.8-23.2,81.6-37.6,129.6-37.6c19.2,0,38.4,2.4,58.4,7.2v47.2
		c-20.8-7.2-45.6-8.8-61.6-8.8c-34.4,0-60,7.2-78.4,17.6V576.4z"/>
	<path fill="#FFFFFF" d="M8561.6,404.4v1.6c0,85.6,61.6,136,129.6,136c49.6,0,84-12.8,119.2-39.2v48c-31.2,23.2-76,33.6-119.2,33.6
		c-100.8,0-177.6-68.8-177.6-182.4c0-104.8,72-182.4,165.6-182.4c88,0,146.4,52.8,146.4,152v32.8H8561.6z M8777.6,364.4
		c-3.2-72.8-42.4-102.4-100.8-102.4c-54.4,0-98.4,36.8-112,102.4H8777.6z"/>
	<path fill="#FFFFFF" d="M9127.1,298c-20-20-48.8-56.8-48.8-100.8c0-60.8,41.6-104,112-104c76,0,117.6,44,117.6,106.4
		c0,62.4-41.6,98.4-91.2,127.2l119.2,125.6c19.2-33.6,28.8-72.8,28.8-110.4h44c0,50.4-15.2,100.8-42.4,142.4l88,92h-59.2l-56-57.6
		c-37.6,39.2-89.6,64.8-152.8,64.8c-87.2,0-148-46.4-148-126.4c0-59.2,36-96.8,109.6-137.6L9127.1,298z M9175.9,348.4
		c-55.2,30.4-88,61.6-88,108.8c0,52,44,85.6,98.4,85.6c52.8,0,94.4-21.6,124-54.4L9175.9,348.4z M9189.5,297.2
		c38.4-20.8,71.2-45.6,71.2-97.6c-1.6-41.6-29.6-64.8-70.4-65.6c-40.8,0-64.8,27.2-64.8,63.2c0,24.8,11.2,44.8,36,71.2L9189.5,297.2
		z"/>
	<path fill="#FFFFFF" d="M9711.9,445.2l-49.6,131.2h-51.2l184-475.2h63.2l186.4,475.2h-52.8l-49.6-131.2H9711.9z M9826.3,141.2
		l-99.2,262.4h199.2L9826.3,141.2z"/>
	<path fill="#FFFFFF" d="M10112.7,242c32-12,76.8-22.4,121.6-22.4c120,0,192.8,62.4,192.8,182.4c0,113.6-75.2,182.4-189.6,182.4
		c-28,0-58.4-5.6-76.8-14.4v150.4h-48V242z M10160.7,528.4c22.4,9.6,47.2,14.4,76.8,14.4c84.8,0,140.8-52,140.8-140.8
		c0-85.6-52-138.4-144-138.4c-27.2,0-55.2,3.2-73.6,9.6V528.4z"/>
	<path fill="#FFFFFF" d="M10520.7,242c32-12,76.8-22.4,121.6-22.4c120,0,192.8,62.4,192.8,182.4c0,113.6-75.2,182.4-189.6,182.4
		c-28,0-58.4-5.6-76.8-14.4v150.4h-48V242z M10568.7,528.4c22.4,9.6,47.2,14.4,76.8,14.4c84.8,0,140.8-52,140.8-140.8
		c0-85.6-52-138.4-144-138.4c-27.2,0-55.2,3.2-73.6,9.6V528.4z"/>
	<path fill="#FFFFFF" d="M10976.7,576.4h-48v-544h48V576.4z"/>
	<path fill="#FFFFFF" d="M11084.7,118.8c0-20,16.8-36,36-36c20,0,36,16,36,36c0,19.2-16,36-36,36
		C11101.5,154.8,11084.7,138,11084.7,118.8z M11144.7,576.4h-48V227.6h48V576.4z"/>
	<path fill="#FFFFFF" d="M11519.1,296.4c-29.6-20.8-64.8-32.8-97.6-32.8c-72,0-134.4,48-134.4,139.2c0,88,61.6,137.6,137.6,137.6
		c36.8,0,68-12,100-32.8V558c-34.4,17.6-68,26.4-104.8,26.4c-97.6,0-181.6-68-181.6-182.4c0-116.8,86.4-182.4,180.8-182.4
		c38.4,0,68.8,8.8,100,26.4V296.4z"/>
	<path fill="#FFFFFF" d="M11801.5,332.4c0-44.8-28.8-68-73.6-68c-40,0-70.4,11.2-102.4,28v-45.6c29.6-16,67.2-27.2,108-27.2
		c70.4,0,116,31.2,116,109.6V570c-32,8.8-69.6,12.8-99.2,12.8c-94.4,0-157.6-29.6-157.6-103.2c0-68.8,63.2-104.8,169.6-104.8h39.2
		V332.4z M11801.5,414h-36c-72,0-124.8,19.2-124.8,65.6c0,46.4,48,63.2,112,63.2c14.4,0,32-1.6,48.8-4.8V414z"/>
	<path fill="#FFFFFF" d="M11915.9,227.6h53.6v-84.8h48v84.8h98.4v40.8h-98.4v212.8c0,44.8,17.6,62.4,50.4,62.4
		c22.4,0,40.8-7.2,64.8-19.2v42.4c-20.8,10.4-44.8,17.6-75.2,17.6c-50.4,0-88-26.4-88-98.4V268.4h-53.6V227.6z"/>
	<path fill="#FFFFFF" d="M12204.7,118.8c0-20,16.8-36,36-36c20,0,36,16,36,36c0,19.2-16,36-36,36
		C12221.5,154.8,12204.7,138,12204.7,118.8z M12264.7,576.4h-48V227.6h48V576.4z"/>
	<path fill="#FFFFFF" d="M12533.5,219.6c104,0,175.2,74.4,175.2,182.4c0,108-71.2,182.4-175.2,182.4s-175.2-74.4-175.2-182.4
		C12358.3,294,12429.5,219.6,12533.5,219.6z M12533.5,261.2c-73.6,0-126.4,56-126.4,140.8s52.8,140.8,126.4,140.8
		s126.4-56,126.4-140.8S12607.1,261.2,12533.5,261.2z"/>
	<path fill="#FFFFFF" d="M12802.2,246c46.4-16.8,99.2-26.4,146.4-26.4c88,0,141.6,34.4,141.6,121.6v235.2h-48V350.8
		c0-71.2-50.4-86.4-97.6-86.4c-36.8,0-69.6,6.4-94.4,12.8v299.2h-48V246z"/>
	<path fill="#FFFFFF" d="M6269.6,1472.4H6220V997.2h49.6V1472.4z"/>
	<path fill="#FFFFFF" d="M6397.6,1142c46.4-16.8,99.2-26.4,146.4-26.4c88,0,141.6,34.4,141.6,121.6v235.2h-48v-225.6
		c0-71.2-50.4-86.4-97.6-86.4c-36.8,0-69.6,6.4-94.4,12.8v299.2h-48V1142z"/>
	<path fill="#FFFFFF" d="M6801.6,1142c46.4-16.8,99.2-26.4,146.4-26.4c88,0,141.6,34.4,141.6,121.6v235.2h-48v-225.6
		c0-71.2-50.4-86.4-97.6-86.4c-36.8,0-69.6,6.4-94.4,12.8v299.2h-48V1142z"/>
	<path fill="#FFFFFF" d="M7354.4,1115.6c104,0,175.2,74.4,175.2,182.4c0,108-71.2,182.4-175.2,182.4s-175.2-74.4-175.2-182.4
		C7179.2,1190,7250.4,1115.6,7354.4,1115.6z M7354.4,1157.2c-73.6,0-126.4,56-126.4,140.8c0,84.8,52.8,140.8,126.4,140.8
		s126.4-56,126.4-140.8C7480.8,1213.2,7428,1157.2,7354.4,1157.2z"/>
	<path fill="#FFFFFF" d="M7704,1472.4l-136.8-348.8h50.4l113.6,304l113.6-304h48.8l-136.8,348.8H7704z"/>
	<path fill="#FFFFFF" d="M8138.4,1228.4c0-44.8-28.8-68-73.6-68c-40,0-70.4,11.2-102.4,28v-45.6c29.6-16,67.2-27.2,108-27.2
		c70.4,0,116,31.2,116,109.6V1466c-32,8.8-69.6,12.8-99.2,12.8c-94.4,0-157.6-29.6-157.6-103.2c0-68.8,63.2-104.8,169.6-104.8h39.2
		V1228.4z M8138.4,1310h-36c-72,0-124.8,19.2-124.8,65.6c0,46.4,48,63.2,112,63.2c14.4,0,32-1.6,48.8-4.8V1310z"/>
	<path fill="#FFFFFF" d="M8252.8,1123.6h53.6v-84.8h48v84.8h98.4v40.8h-98.4v212.8c0,44.8,17.6,62.4,50.4,62.4
		c22.4,0,40.8-7.2,64.8-19.2v42.4c-20.8,10.4-44.8,17.6-75.2,17.6c-50.4,0-88-26.4-88-98.4v-217.6h-53.6V1123.6z"/>
	<path fill="#FFFFFF" d="M8541.6,1014.8c0-20,16.8-36,36-36c20,0,36,16,36,36c0,19.2-16,36-36,36
		C8558.4,1050.8,8541.6,1034,8541.6,1014.8z M8601.6,1472.4h-48v-348.8h48V1472.4z"/>
	<path fill="#FFFFFF" d="M8870.4,1115.6c104,0,175.2,74.4,175.2,182.4c0,108-71.2,182.4-175.2,182.4s-175.2-74.4-175.2-182.4
		C8695.2,1190,8766.4,1115.6,8870.4,1115.6z M8870.4,1157.2c-73.6,0-126.4,56-126.4,140.8c0,84.8,52.8,140.8,126.4,140.8
		s126.4-56,126.4-140.8C8996.8,1213.2,8944,1157.2,8870.4,1157.2z"/>
	<path fill="#FFFFFF" d="M9139.2,1142c46.4-16.8,99.2-26.4,146.4-26.4c88,0,141.6,34.4,141.6,121.6v235.2h-48v-225.6
		c0-71.2-50.4-86.4-97.6-86.4c-36.8,0-69.6,6.4-94.4,12.8v299.2h-48V1142z"/>
	<path fill="#FFFFFF" d="M9703.1,997.2h49.6v432h204.8v43.2h-254.4V997.2z"/>
	<path fill="#FFFFFF" d="M10222.3,1228.4c0-44.8-28.8-68-73.6-68c-40,0-70.4,11.2-102.4,28v-45.6c29.6-16,67.2-27.2,108-27.2
		c70.4,0,116,31.2,116,109.6V1466c-32,8.8-69.6,12.8-99.2,12.8c-94.4,0-157.6-29.6-157.6-103.2c0-68.8,63.2-104.8,169.6-104.8h39.2
		V1228.4z M10222.3,1310h-36c-72,0-124.8,19.2-124.8,65.6c0,46.4,48,63.2,112,63.2c14.4,0,32-1.6,48.8-4.8V1310z"/>
	<path fill="#FFFFFF" d="M10384.7,928.4h48v204.8c15.2-8.8,49.6-17.6,83.2-17.6c104.8,0,183.2,60.8,183.2,180.8
		c0,112.8-80,184-200.8,184c-36.8,0-77.6-6.4-113.6-17.6V928.4z M10432.7,1430c20,5.6,43.2,8,65.6,8c92.8,0,152-52.8,152-141.6
		c0-89.6-61.6-137.6-134.4-137.6c-36,0-63.2,6.4-83.2,16V1430z"/>
</g>
<g>
</g>
<g>
</g>
<g>
</g>
<g>
</g>
<g>
</g>
<g>
</g>
<g>
</g>
<g>
</g>
<g>
</g>
<g>
</g>
<g>
</g>
<g>
</g>
<g>
</g>
<g>
</g>
<g>
</g>
</svg>
