<?xml version="1.0" encoding="utf-8"?>
<!-- Generator: Adobe Illustrator 20.0.0, SVG Export Plug-In . SVG Version: 6.00 Build 0)  -->
<svg version="1.1" id="Layer_1" shape-rendering="crispEdges"
	 xmlns="http://www.w3.org/2000/svg" xmlns:xlink="http://www.w3.org/1999/xlink" x="0px" y="0px" viewBox="0 0 400 400"
	 style="enable-background:new 0 0 400 400;" xml:space="preserve">
<style type="text/css">
	.st0{fill:#E0533B;}
	.st1{fill:#73A6FC;}
	.st2{fill:#94ED6B;}
</style>
<polygon class="st0" points="0,0 100,0 0,100 "/>
<polygon class="st0" points="400,0 400,100 300,0 "/>
<polygon class="st1" points="100,100 200,100 100,200 "/>
<polygon class="st1" points="300,100 300,200 200,100 "/>
<polygon class="st1" points="100,300 100,200 200,300 "/>
<polygon class="st1" points="300,300 200,300 300,200 "/>
<rect x="129.3" y="129.3" transform="matrix(0.7071 -0.7071 0.7071 0.7071 -82.8427 200)" class="st0" width="141.4" height="141.4"/>
<polygon class="st0" points="0,400 0,300 100,400 "/>
<g>
	<path class="st2" d="M300,0H200H100L0,100v100v100l100,100h100h100l100-100V200V100L300,0z M300,300H200H100V200V100h100h100v100
		V300z"/>
	<polygon class="st0" points="400,400 300,400 400,300 	"/>
</g>
</svg>
