<svg id="Layer_1" data-name="Layer 1" xmlns="http://www.w3.org/2000/svg" viewBox="0 0 400 400"><defs><style>.cls-1{fill:#e0533b;}.cls-2{fill:#fff;}.cls-3{fill:#73a6fc;}.cls-4{fill:#ebb54a;}.cls-5{fill:#94ed6b;}</style></defs><title>p11</title><polygon class="cls-1" points="200 0 100 0 0 0 0 100 0 200 100 200 200 200 100 100 200 0"/><rect class="cls-2" x="129.29" y="29.29" width="141.42" height="141.42" transform="translate(-12.13 170.71) rotate(-45)"/><polygon class="cls-3" points="300 0 200 0 300 100 200 200 300 200 400 200 400 100 400 0 300 0"/><polygon class="cls-4" points="300 200 200 200 100 200 0 200 0 300 100 300 200 300 300 300 400 300 400 200 300 200"/><polygon class="cls-5" points="300 300 200 300 100 300 0 300 0 400 100 400 200 400 300 400 400 400 400 300 300 300"/></svg>