<svg id="Layer_1" data-name="Layer 1" xmlns="http://www.w3.org/2000/svg" viewBox="0 0 400 400"><defs><style>.cls-1{fill:#73a6fc;}.cls-2{fill:#fff;}.cls-3{fill:#e0533b;}</style></defs><title>p24</title><polygon class="cls-1" points="300 0 200 0 100 0 0 0 0 100 100 200 200 100 300 200 400 100 400 0 300 0"/><polygon class="cls-2" points="300 200 200 100 100 200 0 100 0 200 0 300 100 300 200 300 300 300 400 300 400 200 400 100 300 200"/><polygon class="cls-3" points="300 300 200 300 100 300 0 300 0 400 100 400 200 400 300 400 400 400 400 300 300 300"/></svg>