<?xml version="1.0" encoding="utf-8"?>
<!-- Generator: Adobe Illustrator 20.0.0, SVG Export Plug-In . SVG Version: 6.00 Build 0)  -->
<svg version="1.1" id="Layer_1" xmlns="http://www.w3.org/2000/svg" xmlns:xlink="http://www.w3.org/1999/xlink" x="0px" y="0px"
	 viewBox="0 0 1449.5 1448" style="enable-background:new 0 0 1449.5 1448;" xml:space="preserve">
<style type="text/css">
	.st0{fill:#E0533B;}
	.st1{fill:#73A6FC;}
	.st2{fill:#94ED6B;}
	.st3{fill:#EBB54A;}
	.st4{fill:none;}
</style>
<rect y="0.2" class="st0" width="1449.4" height="1447.8"/>
<polygon class="st1" points="725.5,0 363.5,0 725.5,362 1087.5,0 "/>
<polygon class="st1" points="725.5,1448 363.5,1448 725.5,1086 1087.5,1448 "/>
<polygon class="st2" points="0,360.4 0,725 0,1087 362,724 "/>
<polygon class="st3" points="363.5,0 0,0 363.3,362 725,724 725.5,362 "/>
<polygon class="st0" points="363.3,1086 0,1448 363.5,1448 725.5,1086 725,724 "/>
<polygon class="st0" points="363.5,362 0,0 0,360.5 1.6,362 362,724 725,724 "/>
<polygon class="st3" points="362,724 1,1086 0,1087 0,1448 362.7,1086 725,724 "/>
<polygon class="st1" points="724,1448 1086,1448 724,1086 362,1448 "/>
<polygon class="st1" points="724,0 1086,0 724,362 362,0 "/>
<g>
	<polygon class="st2" points="1449.5,1088.1 1440.8,1079 1443,387.1 1449.5,387.1 	"/>
	<polygon class="st2" points="1448.5,1087.8 1449,1088.3 1449.5,360.1 1085.7,724 	"/>
</g>
<polygon class="st3" points="1086,1448 1449.5,1448 1086.3,1086 725,724 724,1086 "/>
<polygon class="st0" points="1086.3,362 1449.5,0 1086,0 724,362 725,724 "/>
<polygon class="st0" points="1449.5,1087.8 1087.5,724 1087.1,724 725,724 1084.3,1086 1449.5,1448 1449,1088.3 "/>
<polygon class="st0" points="1449.5,1448 1447.8,1446.2 1448.1,1087.8 1449.5,1087.8 "/>
<g>
	<polygon class="st3" points="1087.5,724 1449.5,360.3 1448.2,1.2 1085.3,362 725,724 	"/>
	<polygon class="st3" points="1447.8,358.6 1449.5,358.6 1449.5,0 1446.3,3.2 	"/>
</g>
<rect x="5699.5" y="77.6" class="st4" width="2692" height="1356"/>
</svg>
